# xmcd
#
# Track frame offsets:
#	150
#	16278
#	29605
#	46578
#	67090
#	82193
#	99787
#	118769
#	136139
#	151171
#	167299
#	180626
#	197599
#	218111
#	233214
#	250808
#	269790
#	287160
#
# Disc length: 4029 seconds
#
# Revision: 1
# Processed by: cddbd v1.5.2PL0 Copyright (c) Steve Scherf et al.
# Submitted via: audiograbber 1.83.01
#
DISCID=f70fbb12
DTITLE=Various Artist - PHMC02110305
DYEAR=2011
DGENRE=Karaoke
TTITLE0=Kenny Chesney - Live A Little
TTITLE1=Carrie Underwood - Songs Like This
TTITLE2=Chris Young - Tomorrow
TTITLE3=Sarah Darling - Something To Do With Your Hands
TTITLE4=Toby Keith - Somewhere Else
TTITLE5=David Nail - Let It Rain
TTITLE6=Steve Azar - Hard Road
TTITLE7=Rhett Akins - If Heaven Wasn't So Fay Away
TTITLE8=Jana Kramer - I Won't Give Up
TTITLE9=Kenny Chesney - Live A Little (vocals)
TTITLE10=Carrie Underwood - Songs Like This (vocals)
TTITLE11=Chris Young - Tomorrow (vocals)
TTITLE12=Sarah Darling - Something To Do With Your Hands (vocals)
TTITLE13=Toby Keith - Somewhere Else (vocals)
TTITLE14=David Nail - Let It Rain (vocals)
TTITLE15=Steve Azar - Hard Road (vocals)
TTITLE16=Rhett Akins - If Heaven Wasn't So Fay Away (vocals)
TTITLE17=Jana Kramer - I Won't Give Up (v0cals
EXTD=
EXTT0=
EXTT1=
EXTT2=
EXTT3=
EXTT4=
EXTT5=
EXTT6=
EXTT7=
EXTT8=
EXTT9=
EXTT10=
EXTT11=
EXTT12=
EXTT13=
EXTT14=
EXTT15=
EXTT16=
EXTT17=
PLAYORDER=
